<svg id="visual" viewBox="0 0 1060 1300" width="1060" height="1300" xmlns="http://www.w3.org/2000/svg" xmlns:xlink="http://www.w3.org/1999/xlink" version="1.1"><rect x="0" y="0" width="1060" height="1300" fill="#eee"></rect><defs><linearGradient id="grad1_0" x1="0%" y1="0%" x2="100%" y2="100%"><stop offset="30%" stop-color="#eeeeee" stop-opacity="1"></stop><stop offset="70%" stop-color="#eeeeee" stop-opacity="1"></stop></linearGradient></defs><defs><linearGradient id="grad2_0" x1="0%" y1="0%" x2="100%" y2="100%"><stop offset="30%" stop-color="#eeeeee" stop-opacity="1"></stop><stop offset="70%" stop-color="#eeeeee" stop-opacity="1"></stop></linearGradient></defs><g transform="translate(1060, 0)"><path d="M0 209.7C-30.1 209.2 -60.2 208.7 -80.2 193.7C-100.3 178.7 -110.4 149.3 -129.4 129.4C-148.4 109.5 -176.4 99.2 -191.2 79.2C-206.1 59.2 -207.9 29.6 -209.7 0L0 0Z" fill="#F06736"></path></g><g transform="translate(0, 1300)"><path d="M0 -209.7C27.3 -206.8 54.7 -203.9 80.2 -193.7C105.8 -183.5 129.6 -166 144.2 -144.2C158.9 -122.5 164.3 -96.7 173.7 -71.9C183.1 -47.2 196.4 -23.6 209.7 0L0 0Z" fill="#F06736"></path></g></svg>